<?xml version="1.0" standalone="no"?>
<!DOCTYPE svg PUBLIC "-//W3C//DTD SVG 20010904//EN"
 "http://www.w3.org/TR/2001/REC-SVG-20010904/DTD/svg10.dtd">
<svg version="1.0" xmlns="http://www.w3.org/2000/svg"
 width="1600.000000pt" height="1131.000000pt" viewBox="0 0 1600.000000 1131.000000"
 preserveAspectRatio="xMidYMid meet">

<g transform="translate(0.000000,1131.000000) scale(0.100000,-0.100000)"
fill="#000000" stroke="none">
<path d="M7892 7608 c-14 -14 -16 -28 -3 -28 5 0 11 9 14 20 6 23 5 24 -11 8z"/>
<path d="M7636 7588 c-24 -34 -19 -47 7 -16 21 26 28 28 112 31 l90 3 -97 2
c-90 2 -98 0 -112 -20z"/>
<path d="M8322 7575 c-9 -20 -9 -25 3 -25 9 0 12 6 9 15 -4 8 -1 15 5 15 6 0
11 -7 11 -15 0 -8 4 -15 10 -15 6 0 5 10 -2 25 -6 14 -14 25 -18 25 -4 0 -12
-11 -18 -25z"/>
<path d="M7661 7573 c-7 -8 -11 -15 -10 -16 2 -1 56 0 119 4 l115 5 -102 2
c-56 1 -103 6 -105 11 -1 5 -9 2 -17 -6z"/>
<path d="M7847 7533 c3 -7 9 -10 14 -7 14 8 11 21 -5 21 -8 0 -12 -6 -9 -14z"/>
<path d="M8283 7508 c-10 -18 -22 -40 -28 -49 -44 -69 -75 -126 -75 -139 0 -8
13 10 29 41 17 30 46 80 65 109 20 30 36 58 36 62 0 16 -10 7 -27 -24z"/>
<path d="M8366 7532 c-3 -5 1 -16 10 -23 14 -12 49 -80 67 -131 4 -10 11 -18
16 -18 14 0 2 29 -44 110 -43 76 -41 74 -49 62z"/>
<path d="M7627 7513 c-4 -3 -7 -11 -7 -17 0 -6 5 -5 12 2 6 6 9 14 7 17 -3 3
-9 2 -12 -2z"/>
<path d="M8335 7491 c-6 -11 9 -23 19 -14 9 9 7 23 -3 23 -6 0 -12 -4 -16 -9z"/>
<path d="M7576 7482 c-3 -5 1 -9 9 -9 8 0 12 4 9 9 -3 4 -7 8 -9 8 -2 0 -6 -4
-9 -8z"/>
<path d="M7824 7472 c-6 -4 -23 -29 -38 -57 -16 -27 -34 -57 -40 -65 -16 -18
-32 -60 -18 -45 10 10 113 175 109 175 -1 0 -7 -4 -13 -8z"/>
<path d="M7563 7448 c-14 -18 -35 -58 -30 -58 3 0 17 16 31 35 15 19 23 35 18
35 -5 0 -14 -6 -19 -12z"/>
<path d="M8280 7445 c0 -8 2 -15 4 -15 2 0 6 7 10 15 3 8 1 15 -4 15 -6 0 -10
-7 -10 -15z"/>
<path d="M8400 7416 c0 -8 4 -17 9 -20 5 -4 7 3 4 14 -6 23 -13 26 -13 6z"/>
<path d="M8268 7413 c7 -3 16 -2 19 1 4 3 -2 6 -13 5 -11 0 -14 -3 -6 -6z"/>
<path d="M7570 7399 c0 -5 5 -7 10 -4 6 3 10 8 10 11 0 2 -4 4 -10 4 -5 0 -10
-5 -10 -11z"/>
<path d="M7702 7376 c7 -8 17 -12 22 -9 4 3 2 9 -5 14 -22 13 -31 11 -17 -5z"/>
<path d="M8410 7370 c0 -5 5 -10 11 -10 5 0 7 5 4 10 -3 6 -8 10 -11 10 -2 0
-4 -4 -4 -10z"/>
<path d="M7497 7340 c-18 -31 -6 -54 16 -30 9 10 9 11 0 6 -16 -9 -16 -1 -2
26 17 32 5 31 -14 -2z"/>
<path d="M8410 7335 c-7 -9 -10 -18 -6 -22 3 -3 6 -1 6 5 0 6 8 12 18 14 11 2
13 6 6 11 -7 4 -17 0 -24 -8z"/>
<path d="M8485 7331 c5 -17 4 -22 -5 -16 -9 5 -11 4 -6 -4 4 -6 11 -9 16 -6
14 9 22 -33 10 -55 -6 -11 -7 -20 -1 -20 5 0 12 8 15 17 6 15 8 15 16 3 24
-38 7 7 -21 53 -17 29 -27 41 -24 28z"/>
<path d="M8210 7330 c0 -5 5 -10 10 -10 6 0 10 5 10 10 0 6 -4 10 -10 10 -5 0
-10 -4 -10 -10z"/>
<path d="M7460 7278 c-12 -22 -12 -22 6 -6 10 10 15 20 12 24 -4 3 -12 -5 -18
-18z"/>
<path d="M7705 7279 c-4 -6 -5 -12 -2 -15 2 -3 7 2 10 11 7 17 1 20 -8 4z"/>
<path d="M8482 7270 c0 -14 2 -19 5 -12 2 6 2 18 0 25 -3 6 -5 1 -5 -13z"/>
<path d="M8136 7255 c-18 -28 -21 -39 -6 -30 6 3 10 1 10 -5 0 -6 5 -8 11 -4
8 5 8 9 -1 14 -9 6 -9 13 -1 29 16 29 7 27 -13 -4z"/>
<path d="M7479 7253 c-13 -16 -12 -17 4 -4 9 7 17 15 17 17 0 8 -8 3 -21 -13z"/>
<path d="M7437 7243 c-46 -80 -66 -123 -57 -123 5 0 10 4 10 10 0 5 14 32 30
61 17 28 29 53 26 56 -2 2 -6 1 -9 -4z"/>
<path d="M7605 7219 c-11 -16 -1 -19 13 -3 7 8 8 14 3 14 -5 0 -13 -5 -16 -11z"/>
<path d="M8560 7209 c0 -9 9 -28 20 -42 24 -30 25 -45 4 -75 -8 -12 -11 -22
-5 -22 5 0 13 9 16 20 4 11 11 18 16 14 6 -3 8 -13 4 -23 -5 -12 -3 -13 5 -5
9 9 7 21 -8 50 -39 78 -52 99 -52 83z"/>
<path d="M7652 7185 c-6 -14 -16 -25 -22 -25 -5 0 -9 -3 -8 -7 1 -5 -4 -21
-10 -36 -7 -16 -12 -32 -12 -37 0 -4 -6 -10 -13 -13 -13 -5 -72 -116 -65 -122
2 -2 17 22 33 53 17 31 33 58 37 60 10 5 80 143 75 148 -2 2 -9 -7 -15 -21z"/>
<path d="M8096 7184 c-10 -14 -16 -28 -13 -30 2 -3 12 7 21 22 10 14 16 28 13
30 -2 3 -12 -7 -21 -22z"/>
<path d="M7620 7189 c0 -5 5 -7 10 -4 6 3 10 8 10 11 0 2 -4 4 -10 4 -5 0 -10
-5 -10 -11z"/>
<path d="M7418 7151 c-11 -26 -25 -41 -39 -43 -14 -2 -32 -22 -52 -58 -16 -30
-33 -57 -37 -60 -12 -9 -82 -152 -76 -157 2 -3 19 26 37 63 18 38 45 85 60
104 14 19 30 46 34 58 4 14 21 30 41 38 23 10 34 21 34 35 0 11 4 18 8 15 4
-2 9 6 10 20 2 33 0 30 -20 -15z"/>
<path d="M8151 7174 c0 -11 3 -14 6 -6 3 7 2 16 -1 19 -3 4 -6 -2 -5 -13z"/>
<path d="M8566 7147 c3 -10 9 -15 12 -12 3 3 0 11 -7 18 -10 9 -11 8 -5 -6z"/>
<path d="M8377 7129 c-17 -19 -17 -22 13 -65 16 -25 30 -47 30 -49 0 -2 14
-26 31 -52 18 -28 28 -38 24 -23 -4 13 -16 37 -26 52 -11 16 -28 42 -39 58
-12 17 -18 36 -14 42 4 7 3 8 -4 4 -15 -9 -15 -5 -2 28 12 31 10 32 -13 5z"/>
<path d="M8057 7124 c-11 -11 -8 -26 3 -19 6 3 10 -2 11 -12 0 -10 3 -13 5 -6
7 15 -10 46 -19 37z"/>
<path d="M8290 7111 c-6 -12 -7 -21 -1 -21 10 0 24 30 17 37 -2 3 -9 -5 -16
-16z"/>
<path d="M8250 7078 c0 -19 2 -20 10 -8 13 19 13 30 0 30 -5 0 -10 -10 -10
-22z"/>
<path d="M7388 7073 c6 -2 18 -2 25 0 6 3 1 5 -13 5 -14 0 -19 -2 -12 -5z"/>
<path d="M8010 7038 c-21 -41 -21 -42 -2 -25 16 15 37 67 27 67 -2 0 -13 -19
-25 -42z"/>
<path d="M8430 7068 c0 -3 7 -21 15 -39 16 -34 16 -34 10 -4 -6 26 -25 60 -25
43z"/>
<path d="M8460 7065 c0 -5 5 -17 10 -25 5 -8 10 -10 10 -5 0 6 -5 17 -10 25
-5 8 -10 11 -10 5z"/>
<path d="M7520 7050 c0 -5 5 -10 11 -10 5 0 7 5 4 10 -3 6 -8 10 -11 10 -2 0
-4 -4 -4 -10z"/>
<path d="M8071 7044 c0 -11 3 -14 6 -6 3 7 2 16 -1 19 -3 4 -6 -2 -5 -13z"/>
<path d="M8247 7029 c6 -23 9 -24 16 -5 3 8 0 17 -7 19 -10 4 -12 -1 -9 -14z"/>
<path d="M8650 7045 c0 -4 8 -19 19 -33 10 -15 22 -37 25 -49 4 -13 12 -23 18
-23 5 0 7 -7 4 -16 -3 -8 -2 -13 2 -10 4 2 18 -15 31 -40 13 -24 26 -43 28
-40 4 3 -55 117 -66 126 -4 3 -15 22 -26 43 -19 37 -35 56 -35 42z"/>
<path d="M7959 6943 c-14 -27 -36 -65 -48 -82 -13 -18 -21 -35 -18 -37 3 -3
11 5 18 18 6 12 18 27 25 31 8 4 14 15 14 23 0 9 9 29 21 45 11 16 19 35 17
41 -3 7 -16 -11 -29 -39z"/>
<path d="M7490 6960 c0 -5 5 -10 11 -10 5 0 7 5 4 10 -3 6 -8 10 -11 10 -2 0
-4 -4 -4 -10z"/>
<path d="M8160 6951 c0 -6 4 -13 10 -16 6 -3 7 1 4 9 -7 18 -14 21 -14 7z"/>
<path d="M8196 6930 c-9 -17 -20 -28 -24 -26 -4 2 -7 -9 -8 -25 -1 -16 0 -28
1 -27 1 2 14 25 29 52 29 53 31 74 2 26z"/>
<path d="M7975 6890 c-6 -21 -20 -40 -35 -47 -19 -10 -21 -13 -7 -13 30 0 59
35 55 66 l-3 28 -10 -34z"/>
<path d="M7266 6884 c-4 -14 -5 -28 -3 -31 3 -2 8 8 11 23 4 14 5 28 3 31 -3
2 -8 -8 -11 -23z"/>
<path d="M7464 6878 c1 -32 11 -37 20 -10 3 9 8 22 11 27 3 6 -3 11 -13 11
-14 0 -19 -7 -18 -28z"/>
<path d="M8500 6881 c0 -5 5 -13 10 -16 6 -3 10 -2 10 4 0 5 -4 13 -10 16 -5
3 -10 2 -10 -4z"/>
<path d="M8541 6874 c0 -11 3 -14 6 -6 3 7 2 16 -1 19 -3 4 -6 -2 -5 -13z"/>
<path d="M8521 6843 c1 -21 179 -316 186 -309 3 3 -3 18 -13 33 -28 42 -40 62
-75 126 -18 31 -35 57 -39 57 -4 0 -15 20 -24 45 -16 40 -37 69 -35 48z"/>
<path d="M8144 6832 c-6 -4 -21 -27 -33 -52 -21 -44 -19 -42 26 26 24 36 24
38 7 26z"/>
<path d="M7383 6818 c-6 -7 -13 -33 -16 -58 -5 -43 -5 -44 5 -10 5 19 14 43
20 53 11 23 5 33 -9 15z"/>
<path d="M7445 6819 c-4 -6 -5 -12 -2 -15 2 -3 7 2 10 11 7 17 1 20 -8 4z"/>
<path d="M8094 6805 c-9 -14 -15 -28 -12 -30 2 -2 12 9 22 25 21 36 13 40 -10
5z"/>
<path d="M7173 6780 c-22 -41 -22 -50 1 -27 11 11 31 67 24 67 -2 0 -13 -18
-25 -40z"/>
<path d="M7870 6795 c-14 -17 -7 -45 12 -44 10 0 10 2 1 6 -7 2 -13 11 -13 18
0 7 6 15 13 18 6 2 9 7 6 11 -3 4 -12 0 -19 -9z"/>
<path d="M8800 6794 c0 -6 7 -19 16 -30 14 -18 14 -18 3 6 -14 31 -19 36 -19
24z"/>
<path d="M7420 6780 c0 -5 -7 -7 -15 -4 -8 4 -15 1 -15 -5 0 -6 5 -11 10 -11
6 0 1 -13 -11 -30 -13 -16 -20 -32 -17 -35 3 -3 20 17 37 44 17 28 26 51 21
51 -6 0 -10 -4 -10 -10z"/>
<path d="M8040 6730 c0 -5 5 -10 10 -10 6 0 10 5 10 10 0 6 -4 10 -10 10 -5 0
-10 -4 -10 -10z"/>
<path d="M8800 6732 c0 -18 23 -62 32 -62 5 0 1 15 -8 33 -20 39 -24 44 -24
29z"/>
<path d="M7134 6713 c-6 -10 -9 -24 -7 -30 8 -23 18 -14 20 17 3 35 1 36 -13
13z"/>
<path d="M7170 6719 c0 -5 5 -7 10 -4 6 3 10 8 10 11 0 2 -4 4 -10 4 -5 0 -10
-5 -10 -11z"/>
<path d="M7815 6698 l-16 -33 21 24 c11 13 20 27 20 32 0 18 -10 8 -25 -23z"/>
<path d="M8843 6706 c4 -10 7 -22 7 -27 0 -5 4 -9 9 -9 12 0 2 38 -12 47 -7 4
-8 0 -4 -11z"/>
<path d="M8026 6701 c-4 -7 -5 -15 -2 -18 9 -9 19 4 14 18 -4 11 -6 11 -12 0z"/>
<path d="M8026 6639 c-15 -33 -26 -63 -23 -65 3 -3 8 5 12 18 4 13 15 34 25
48 21 31 32 60 22 60 -4 0 -20 -28 -36 -61z"/>
<path d="M7077 6620 c-19 -33 -31 -60 -27 -60 5 0 19 18 31 40 12 21 26 37 30
35 4 -3 6 6 5 20 0 14 -1 25 -2 25 -1 0 -17 -27 -37 -60z"/>
<path d="M7339 6644 l-23 -38 -8 32 c-10 36 -13 39 -22 16 -4 -10 -2 -13 6 -8
8 5 9 -1 4 -20 -4 -18 -3 -25 4 -21 14 9 12 -5 -5 -35 -8 -14 -14 -29 -14 -35
0 -5 14 15 32 46 18 31 38 64 46 73 8 9 11 19 9 22 -3 3 -16 -12 -29 -32z"/>
<path d="M7820 6660 c-6 -11 -7 -20 -2 -20 6 0 12 9 15 20 3 11 3 20 1 20 -2
0 -8 -9 -14 -20z"/>
<path d="M8003 6659 c-2 -23 3 -25 10 -4 4 8 3 16 -1 19 -4 3 -9 -4 -9 -15z"/>
<path d="M7774 6627 c-12 -17 -34 -57 -50 -87 -16 -30 -32 -57 -35 -60 -14
-11 -71 -121 -66 -127 3 -3 16 15 28 40 13 25 27 43 32 40 6 -3 7 -1 3 6 -4 6
-2 19 5 28 18 21 34 49 59 101 11 24 27 50 35 58 13 13 21 34 13 34 -2 0 -13
-15 -24 -33z"/>
<path d="M8665 6650 c3 -5 11 -10 16 -10 6 0 7 5 4 10 -3 6 -11 10 -16 10 -6
0 -7 -4 -4 -10z"/>
<path d="M8880 6649 c0 -8 6 -24 14 -34 8 -11 13 -24 12 -30 -2 -5 -1 -6 2 -2
2 5 17 -11 33 -35 46 -68 34 -36 -16 44 -25 40 -45 66 -45 57z"/>
<path d="M8680 6621 c0 -5 5 -13 10 -16 6 -3 10 -2 10 4 0 5 -4 13 -10 16 -5
3 -10 2 -10 -4z"/>
<path d="M7923 6562 c-1 -18 1 -21 8 -11 8 12 11 12 20 -1 9 -13 10 -12 5 3
-3 10 -6 22 -6 26 0 21 -25 4 -27 -17z"/>
<path d="M7977 6583 c-4 -3 -7 -11 -7 -17 0 -6 5 -5 12 2 6 6 9 14 7 17 -3 3
-9 2 -12 -2z"/>
<path d="M7080 6565 c0 -8 -7 -15 -15 -15 -8 0 -15 -4 -15 -9 0 -5 10 -8 23
-7 16 1 22 7 22 23 0 13 -3 23 -7 23 -5 0 -8 -7 -8 -15z"/>
<path d="M8887 6549 c4 -13 8 -18 11 -10 2 7 -1 18 -6 23 -8 8 -9 4 -5 -13z"/>
<path d="M7955 6514 c-19 -26 -35 -55 -35 -65 0 -11 -4 -19 -10 -19 -11 0 -44
-59 -37 -66 5 -5 45 56 64 101 8 16 25 44 39 62 14 18 23 33 20 33 -3 0 -21
-21 -41 -46z"/>
<path d="M8910 6548 c0 -9 5 -20 11 -23 17 -11 18 -2 3 19 -12 17 -14 17 -14
4z"/>
<path d="M7022 6525 c-15 -32 -15 -46 -1 -22 6 9 14 15 19 12 4 -3 6 4 3 15
-7 25 -7 25 -21 -5z"/>
<path d="M8261 6533 c-1 -6 -4 -20 -7 -30 -5 -17 -5 -17 6 0 6 10 9 23 6 30
-3 9 -5 9 -5 0z"/>
<path d="M7745 6520 c-3 -5 -1 -10 4 -10 6 0 11 5 11 10 0 6 -2 10 -4 10 -3 0
-8 -4 -11 -10z"/>
<path d="M7205 6499 c-4 -6 -4 -13 -1 -16 3 -4 6 -1 6 5 0 18 17 15 24 -4 8
-21 -4 -41 -14 -24 -5 9 -9 9 -14 1 -4 -6 -3 -11 3 -11 15 0 6 -31 -16 -54
-11 -11 -28 -38 -38 -59 -13 -28 -20 -35 -26 -25 -5 7 -9 9 -9 3 0 -5 4 -16 9
-23 10 -16 19 -5 45 51 9 20 20 37 24 37 4 0 14 15 21 33 8 17 21 38 28 45 7
7 13 23 13 35 0 16 -3 18 -9 8 -6 -9 -11 -10 -15 -2 -9 14 -23 14 -31 0z"/>
<path d="M8281 6505 c1 -19 18 -51 18 -35 0 8 -4 22 -9 30 -5 8 -9 11 -9 5z"/>
<path d="M8762 6476 c13 -19 24 -33 26 -31 6 6 -31 65 -40 65 -5 0 2 -15 14
-34z"/>
<path d="M7720 6484 c0 -8 5 -12 10 -9 6 3 10 10 10 16 0 5 -4 9 -10 9 -5 0
-10 -7 -10 -16z"/>
<path d="M8970 6488 c0 -8 7 -21 15 -28 19 -16 19 -1 0 24 -12 16 -15 17 -15
4z"/>
<path d="M8215 6452 c-11 -20 -28 -50 -39 -67 l-20 -30 21 18 c11 10 28 36 38
58 13 28 21 36 27 27 6 -10 8 -9 8 4 0 32 -16 27 -35 -10z"/>
<path d="M8741 6471 c-1 -15 46 -101 55 -101 3 0 -5 19 -19 43 -13 23 -27 49
-30 57 -4 12 -6 12 -6 1z"/>
<path d="M6970 6435 c-11 -13 -10 -14 4 -9 9 3 16 10 16 15 0 13 -6 11 -20 -6z"/>
<path d="M8310 6445 c0 -2 10 -21 22 -42 12 -21 21 -49 20 -62 -2 -17 2 -22
13 -17 8 3 15 1 15 -4 0 -6 4 -10 9 -10 6 0 -8 32 -30 70 -37 63 -49 80 -49
65z"/>
<path d="M8213 6395 c-11 -24 -16 -42 -12 -39 10 6 41 75 36 80 -2 2 -13 -16
-24 -41z"/>
<path d="M9009 6418 c4 -12 14 -24 20 -26 8 -3 7 5 -4 22 -21 32 -27 33 -16 4z"/>
<path d="M7865 6420 c-4 -6 -11 -8 -16 -5 -5 4 -9 -1 -9 -9 0 -22 13 -20 28 4
7 11 10 20 8 20 -3 0 -8 -5 -11 -10z"/>
<path d="M8962 6395 c0 -16 2 -22 5 -12 2 9 2 23 0 30 -3 6 -5 -1 -5 -18z"/>
<path d="M8980 6411 c0 -6 5 -13 10 -16 6 -3 10 1 10 9 0 9 -4 16 -10 16 -5 0
-10 -4 -10 -9z"/>
<path d="M6935 6372 c-11 -20 -26 -48 -35 -62 -37 -57 -72 -122 -62 -116 6 3
24 30 40 59 16 28 41 74 57 100 15 26 25 50 23 52 -2 2 -12 -12 -23 -33z"/>
<path d="M7136 6394 c-9 -22 -7 -54 2 -54 4 0 8 16 8 35 0 39 -1 42 -10 19z"/>
<path d="M8327 6339 c3 -24 7 -46 9 -48 9 -10 3 65 -5 78 -6 10 -8 -1 -4 -30z"/>
<path d="M9000 6370 c0 -5 5 -10 10 -10 6 0 10 5 10 10 0 6 -4 10 -10 10 -5 0
-10 -4 -10 -10z"/>
<path d="M9037 6366 c-4 -9 1 -20 12 -25 10 -6 24 -24 31 -41 7 -16 16 -30 20
-30 13 0 32 -58 24 -71 -4 -7 -3 -10 3 -6 6 4 20 -8 32 -26 31 -49 25 -26 -11
40 -64 116 -105 175 -111 159z"/>
<path d="M7843 6316 c0 -17 1 -24 4 -16 3 8 9 22 14 31 5 10 4 16 -4 16 -7 0
-13 -14 -14 -31z"/>
<path d="M8145 6329 c-4 -12 -3 -25 2 -29 4 -5 8 4 9 21 1 34 -2 37 -11 8z"/>
<path d="M8816 6325 c20 -30 24 -31 17 -6 -3 11 -11 22 -19 25 -11 4 -11 0 2
-19z"/>
<path d="M8846 6335 c4 -8 8 -15 10 -15 2 0 4 7 4 15 0 8 -4 15 -10 15 -5 0
-7 -7 -4 -15z"/>
<path d="M9040 6324 c0 -6 7 -19 15 -30 8 -10 14 -14 14 -9 0 6 -6 19 -14 29
-8 11 -15 15 -15 10z"/>
<path d="M7583 6297 c-8 -17 -8 -24 0 -24 7 0 13 11 13 24 2 29 0 29 -13 0z"/>
<path d="M8355 6289 c-4 -6 -4 -13 -1 -16 3 -4 6 -1 6 5 0 6 7 9 17 5 11 -4
14 -3 9 5 -9 15 -23 15 -31 1z"/>
<path d="M8400 6294 c0 -13 18 -39 24 -34 2 3 -2 14 -10 24 -8 11 -14 16 -14
10z"/>
<path d="M8160 6278 c0 -3 17 -36 39 -73 33 -58 38 -63 37 -37 -1 17 -6 28
-12 25 -6 -2 -14 6 -18 19 -6 23 -45 80 -46 66z"/>
<path d="M8850 6270 c0 -5 5 -12 10 -15 6 -3 10 -1 10 5 0 6 6 8 13 4 6 -4 8
-3 4 1 -10 12 -37 15 -37 5z"/>
<path d="M7789 6226 c-13 -25 -27 -42 -31 -40 -4 3 -5 -1 -2 -9 3 -8 -2 -20
-11 -27 -8 -7 -15 -17 -15 -22 0 -5 -10 -22 -21 -37 -12 -16 -20 -34 -18 -40
2 -6 15 10 29 36 13 27 27 50 31 53 12 10 71 121 67 126 -3 2 -16 -16 -29 -40z"/>
<path d="M8200 6262 c0 -5 6 -15 13 -21 14 -11 27 -5 27 12 0 6 -3 7 -7 4 -3
-4 -12 -2 -20 4 -8 7 -13 8 -13 1z"/>
<path d="M7548 6234 c-7 -16 -17 -32 -23 -36 -6 -5 -6 -8 2 -8 14 0 48 59 39
67 -3 3 -11 -7 -18 -23z"/>
<path d="M8920 6245 c7 -9 15 -13 17 -11 7 7 -7 26 -19 26 -6 0 -6 -6 2 -15z"/>
<path d="M7095 6225 c-3 -8 -7 -22 -10 -30 -8 -25 3 -17 19 15 8 17 10 30 5
30 -5 0 -12 -7 -14 -15z"/>
<path d="M8431 6235 c0 -5 6 -19 14 -29 8 -11 15 -15 15 -10 0 6 -7 19 -15 30
-8 10 -14 15 -14 9z"/>
<path d="M8881 6224 c8 -10 24 -38 34 -61 17 -40 35 -57 35 -33 0 6 -3 10 -7
10 -9 0 -33 49 -33 67 0 7 -10 18 -22 24 -22 11 -22 11 -7 -7z"/>
<path d="M7574 6208 c-12 -14 -13 -18 -3 -10 9 6 19 9 22 5 4 -3 7 1 7 10 0
22 -3 21 -26 -5z"/>
<path d="M7057 6200 c-3 -11 -1 -20 4 -20 5 0 9 9 9 20 0 11 -2 20 -4 20 -2 0
-6 -9 -9 -20z"/>
<path d="M8939 6201 c14 -25 20 -27 17 -4 -2 9 -8 19 -15 21 -10 3 -10 0 -2
-17z"/>
<path d="M6867 6179 c4 -13 8 -18 11 -10 2 7 -1 18 -6 23 -8 8 -9 4 -5 -13z"/>
<path d="M6816 6164 c-4 -9 -4 -19 -1 -22 2 -3 7 3 11 12 4 9 4 19 1 22 -2 3
-7 -3 -11 -12z"/>
<path d="M7511 6175 c-1 -6 -16 -34 -35 -63 -19 -28 -31 -52 -26 -52 5 0 7 -8
3 -17 -6 -16 -4 -16 15 1 12 11 22 14 22 9 0 -6 6 -13 13 -16 7 -3 12 5 13 22
1 14 -1 20 -3 14 -3 -7 -9 -13 -15 -13 -6 0 -7 8 -4 18 5 14 4 14 -9 -2 -30
-40 -26 -6 5 38 18 24 30 50 27 58 -3 7 -6 8 -6 3z"/>
<path d="M7041 6165 c0 -5 3 -16 8 -23 7 -11 9 -10 14 3 4 9 3 14 -2 10 -5 -3
-12 1 -14 7 -3 7 -6 9 -6 3z"/>
<path d="M6841 6133 c-18 -19 -10 -25 12 -8 10 7 15 15 10 18 -4 3 -14 -2 -22
-10z"/>
<path d="M9140 6136 c0 -2 7 -9 15 -16 13 -11 14 -10 9 4 -5 14 -24 23 -24 12z"/>
<path d="M6758 6063 c-21 -35 -32 -63 -26 -61 11 4 73 116 67 122 -2 2 -21
-25 -41 -61z"/>
<path d="M8487 6115 c-4 -8 -1 -12 6 -9 8 3 18 -10 25 -30 7 -19 19 -36 26
-39 9 -4 5 11 -11 39 -28 51 -39 60 -46 39z"/>
<path d="M6990 6099 c0 -5 5 -7 10 -4 6 3 10 8 10 11 0 2 -4 4 -10 4 -5 0 -10
-5 -10 -11z"/>
<path d="M7004 6062 c-38 -59 -54 -99 -24 -62 11 14 20 29 20 33 0 5 9 22 21
39 12 16 19 31 17 33 -2 2 -18 -17 -34 -43z"/>
<path d="M8260 6104 c0 -5 7 -18 15 -28 8 -11 15 -16 15 -10 0 5 -7 18 -15 28
-8 11 -15 16 -15 10z"/>
<path d="M8946 6096 c5 -13 44 -16 44 -4 0 4 -3 8 -7 9 -5 0 -16 2 -25 4 -10
2 -15 -2 -12 -9z"/>
<path d="M6960 6066 c0 -8 5 -18 10 -21 6 -3 10 1 10 9 0 8 -4 18 -10 21 -5 3
-10 -1 -10 -9z"/>
<path d="M9212 6075 c21 -55 52 -114 58 -110 11 7 20 -22 14 -42 -5 -15 -4
-16 5 -3 6 8 11 11 11 5 0 -5 10 -21 21 -35 16 -18 14 -12 -6 25 -15 28 -33
57 -40 65 -7 8 -15 24 -19 35 -3 11 -16 31 -27 45 -11 14 -19 21 -17 15z"/>
<path d="M8970 6063 c0 -15 56 -93 63 -87 3 3 -5 18 -19 32 -13 15 -24 32 -24
39 0 6 -4 15 -10 18 -5 3 -10 3 -10 -2z"/>
<path d="M7409 6000 c-27 -50 -24 -70 3 -27 13 20 32 77 26 77 -2 0 -15 -23
-29 -50z"/>
<path d="M8300 6031 c0 -5 5 -13 10 -16 6 -3 10 -2 10 4 0 5 -4 13 -10 16 -5
3 -10 2 -10 -4z"/>
<path d="M7635 6010 c-3 -5 -1 -10 4 -10 6 0 11 5 11 10 0 6 -2 10 -4 10 -3 0
-8 -4 -11 -10z"/>
<path d="M8340 6010 c0 -5 5 -10 10 -10 6 0 10 5 10 10 0 6 -4 10 -10 10 -5 0
-10 -4 -10 -10z"/>
<path d="M8560 6018 c0 -14 33 -68 41 -68 6 0 0 15 -12 33 -29 41 -29 41 -29
35z"/>
<path d="M6755 5990 c-10 -11 -15 -20 -11 -20 11 0 39 30 34 36 -3 2 -13 -5
-23 -16z"/>
<path d="M7650 5985 c-7 -9 -10 -18 -7 -21 3 -3 10 4 17 15 13 25 8 27 -10 6z"/>
<path d="M6685 5935 c-16 -30 -26 -58 -22 -61 4 -4 7 1 7 11 0 15 2 15 16 4
13 -11 14 -9 8 16 -5 20 -4 26 4 21 8 -4 10 -2 6 7 -3 8 2 21 11 30 8 9 12 18
7 21 -4 2 -21 -20 -37 -49z"/>
<path d="M8338 5973 c18 -44 65 -128 73 -131 5 -2 9 -11 10 -20 0 -11 2 -13 6
-4 3 7 0 19 -7 27 -6 8 -21 31 -32 52 -11 21 -27 50 -35 66 -16 30 -26 37 -15
10z"/>
<path d="M8366 5977 c3 -10 9 -15 12 -12 3 3 0 11 -7 18 -10 9 -11 8 -5 -6z"/>
<path d="M9220 5984 c0 -13 18 -39 24 -34 2 3 -2 14 -10 24 -8 11 -14 16 -14
10z"/>
<path d="M6780 5959 c0 -5 5 -7 10 -4 6 3 10 8 10 11 0 2 -4 4 -10 4 -5 0 -10
-5 -10 -11z"/>
<path d="M6998 5953 c6 -2 18 -2 25 0 6 3 1 5 -13 5 -14 0 -19 -2 -12 -5z"/>
<path d="M7178 5953 c34 -2 90 -2 125 0 34 2 6 3 -63 3 -69 0 -97 -1 -62 -3z"/>
<path d="M8386 5952 c-2 -4 -1 -14 4 -22 7 -11 9 -9 7 8 -1 24 -3 26 -11 14z"/>
<path d="M8698 5953 c34 -2 90 -2 125 0 34 2 6 3 -63 3 -69 0 -97 -1 -62 -3z"/>
<path d="M7616 5928 c-9 -12 -16 -27 -16 -33 -1 -5 -10 -21 -21 -34 -19 -23
-20 -23 -35 -5 -14 18 -15 18 -5 -3 14 -27 14 -46 2 -38 -6 3 -9 -4 -8 -15 1
-21 17 -29 17 -8 0 6 11 25 24 42 25 34 69 116 62 116 -3 0 -12 -10 -20 -22z"/>
<path d="M6711 5894 c0 -11 3 -14 6 -6 3 7 2 16 -1 19 -3 4 -6 -2 -5 -13z"/>
<path d="M9290 5891 c0 -6 4 -13 10 -16 6 -3 7 1 4 9 -7 18 -14 21 -14 7z"/>
<path d="M8460 5861 c0 -6 4 -13 10 -16 6 -3 7 1 4 9 -7 18 -14 21 -14 7z"/>
<path d="M9320 5845 c0 -8 9 -15 19 -15 17 0 31 -18 31 -41 0 -5 -10 -10 -22
-10 -17 -1 -19 -2 -5 -6 9 -2 17 -9 17 -14 0 -5 -178 -9 -443 -9 l-444 0 -12
26 c-6 15 -14 24 -17 21 -3 -3 2 -17 11 -31 l17 -26 449 0 c447 0 449 0 449
21 0 12 4 17 11 14 6 -4 8 -13 5 -20 -2 -7 3 -15 13 -18 15 -3 13 5 -12 49
-30 56 -67 89 -67 59z"/>
<path d="M6613 5815 c-12 -18 -24 -44 -28 -57 -5 -17 -1 -14 14 10 12 18 25
31 29 28 4 -2 7 9 8 25 1 16 1 29 0 29 -1 -1 -11 -16 -23 -35z"/>
<path d="M8447 5830 c3 -11 9 -20 15 -20 5 0 4 9 -2 20 -6 11 -12 20 -14 20
-2 0 -2 -9 1 -20z"/>
<path d="M6653 5773 c9 -2 23 -2 30 0 6 3 -1 5 -18 5 -16 0 -22 -2 -12 -5z"/>
<path d="M7118 5773 c256 -2 402 -7 402 -13 0 -6 -165 -10 -462 -11 -255 0
-455 -3 -446 -7 9 -4 219 -5 465 -2 389 4 448 7 448 20 0 13 -52 15 -405 15
l-405 0 403 -2z"/>
<path d="M8683 5773 c114 -2 300 -2 415 0 114 1 20 2 -208 2 -228 0 -322 -1
-207 -2z"/>
<path d="M4826 5013 c-131 -269 -241 -494 -243 -501 -4 -10 20 -12 112 -10
l118 3 28 65 27 65 193 0 192 0 23 -65 22 -65 131 -3 130 -3 -34 68 c-27 55
-333 687 -427 885 -13 26 -25 47 -28 48 -3 0 -113 -219 -244 -487z m288 -55
c26 -62 51 -120 56 -129 5 -9 6 -20 3 -23 -11 -10 -223 -7 -223 4 0 17 104
260 111 260 4 0 28 -51 53 -112z"/>
<path d="M6930 5491 c0 -5 -77 -166 -171 -357 -150 -305 -219 -447 -290 -596
l-18 -38 117 0 117 0 24 60 c13 33 30 65 36 70 8 7 82 9 196 8 l183 -3 26 -65
26 -65 127 -3 128 -3 -44 88 c-25 48 -55 111 -67 138 -12 28 -64 136 -115 240
-50 105 -129 268 -175 363 -73 151 -100 195 -100 163z m41 -496 c17 -39 41
-95 55 -126 13 -31 24 -59 24 -63 0 -9 -218 -7 -224 2 -7 11 97 262 107 259 5
-1 22 -34 38 -72z"/>
<path d="M10903 5453 c-12 -27 -121 -250 -242 -497 -122 -246 -221 -450 -221
-452 0 -2 53 -4 118 -4 l117 0 29 70 30 70 180 0 c100 0 186 -4 191 -8 6 -4
22 -34 36 -67 l25 -60 126 -3 127 -3 -96 198 c-103 213 -239 496 -331 686 -31
64 -59 117 -62 117 -3 0 -15 -21 -27 -47z m80 -510 c30 -73 52 -135 49 -138
-10 -9 -211 -5 -217 5 -3 5 15 58 40 117 25 60 50 119 56 132 5 13 11 22 13
20 2 -2 28 -63 59 -136z"/>
<path d="M8943 5471 c-114 -42 -204 -120 -266 -232 -53 -96 -70 -174 -64 -294
10 -204 113 -359 294 -442 51 -24 70 -27 163 -28 122 0 171 15 262 78 92 63
166 174 203 301 13 44 16 86 13 166 -3 102 -5 111 -45 192 -55 110 -128 184
-231 235 -70 35 -83 38 -176 40 -80 3 -112 -1 -153 -16z m245 -230 c80 -41
122 -128 122 -256 0 -178 -88 -285 -233 -285 -100 0 -159 40 -206 140 -21 46
-26 69 -25 141 0 77 3 93 32 152 34 69 67 100 131 124 47 17 127 10 179 -16z"/>
<path d="M5655 5389 c-4 -46 -5 -264 -3 -484 l3 -400 204 -3 c158 -2 217 1
264 13 234 60 357 220 357 464 0 150 -36 253 -119 340 -98 104 -216 139 -497
148 l-202 6 -7 -84z m416 -158 c54 -17 100 -51 133 -101 27 -39 31 -55 34
-135 3 -64 0 -100 -10 -125 -40 -95 -130 -150 -260 -158 l-78 -5 0 273 0 273
73 -6 c39 -3 88 -10 108 -16z"/>
<path d="M7880 4985 l0 -485 115 0 115 0 0 205 c0 113 3 205 8 205 4 0 66 -91
137 -203 l131 -202 132 -3 133 -3 -12 23 c-7 13 -77 124 -156 247 -82 127
-143 231 -140 240 2 9 68 115 145 236 l141 220 -122 3 c-112 3 -123 1 -138
-17 -10 -12 -68 -102 -130 -201 -63 -99 -117 -180 -121 -180 -5 0 -8 90 -8
200 l0 200 -115 0 -115 0 0 -485z"/>
<path d="M9645 5378 c-9 -51 -18 -101 -21 -110 -5 -17 9 -18 194 -18 109 0
201 -2 204 -6 3 -3 -12 -33 -34 -67 -22 -34 -125 -199 -229 -367 l-190 -305
397 -3 c287 -2 400 1 405 9 3 6 12 46 18 88 7 42 15 84 17 94 5 16 -10 17
-221 17 l-226 0 19 28 c11 15 80 128 154 252 144 240 238 395 270 448 l20 32
-380 0 -380 0 -17 -92z"/>
<path d="M6101 4203 c-1 -53 1 -95 4 -92 2 3 5 40 6 82 l1 77 32 -31 c28 -27
66 -55 66 -47 0 2 -24 27 -54 56 l-54 53 -1 -98z"/>
<path d="M9781 4283 c-1 -12 4 -25 9 -28 12 -7 12 2 0 30 -8 19 -9 19 -9 -2z"/>
<path d="M10686 4283 c-6 -14 -5 -15 5 -6 7 7 10 15 7 18 -3 3 -9 -2 -12 -12z"/>
<path d="M4587 4279 c-19 -11 -24 -73 -7 -99 7 -11 10 0 10 37 0 32 5 53 13
56 6 2 10 7 7 10 -3 3 -13 1 -23 -4z"/>
<path d="M4630 4279 c0 -5 11 -9 25 -9 14 0 25 2 25 4 0 2 -11 6 -25 8 -14 3
-25 1 -25 -3z"/>
<path d="M5689 4238 c-3 -36 0 -59 7 -62 7 -3 10 13 7 47 -7 76 -10 79 -14 15z"/>
<path d="M7250 4280 c0 -6 7 -10 15 -10 8 0 15 2 15 4 0 2 -7 6 -15 10 -8 3
-15 1 -15 -4z"/>
<path d="M7785 4270 c-9 -38 -2 -165 10 -165 13 0 19 150 6 172 -8 16 -10 15
-16 -7z m12 -122 c-2 -24 -4 -5 -4 42 0 47 2 66 4 43 2 -24 2 -62 0 -85z"/>
<path d="M8260 4045 c0 -137 2 -246 5 -244 6 7 7 480 1 487 -3 3 -6 -106 -6
-243z"/>
<path d="M8372 4038 c3 -240 2 -257 -15 -268 -11 -6 -16 -14 -12 -18 3 -3 10
0 15 8 5 8 12 11 15 8 16 -15 -10 -28 -56 -28 -47 0 -49 1 -50 28 0 23 -1 24
-8 7 -15 -37 -2 -45 65 -45 l64 0 0 268 c0 162 -4 273 -10 282 -7 10 -10 -67
-8 -242z"/>
<path d="M9991 4274 c0 -11 3 -14 6 -6 3 7 2 16 -1 19 -3 4 -6 -2 -5 -13z"/>
<path d="M10481 4277 c-1 -11 -6 -15 -13 -11 -6 4 -8 3 -5 -3 4 -6 -7 -36 -23
-67 -17 -30 -30 -61 -30 -68 1 -7 19 23 41 67 21 44 37 84 35 90 -2 5 -5 2 -5
-8z"/>
<path d="M10930 4283 c0 -5 15 -9 33 -10 26 -1 28 0 12 7 -26 11 -45 12 -45 3z"/>
<path d="M4718 4273 c18 -2 45 -2 60 0 15 2 0 4 -33 4 -33 0 -45 -2 -27 -4z"/>
<path d="M4858 4273 c17 -2 47 -2 65 0 17 2 3 4 -33 4 -36 0 -50 -2 -32 -4z"/>
<path d="M5043 4230 c0 -30 2 -43 4 -27 2 15 2 39 0 55 -2 15 -4 2 -4 -28z"/>
<path d="M5852 4250 c-12 -16 -22 -32 -22 -36 0 -4 -11 -22 -25 -40 -14 -18
-25 -37 -25 -43 0 -6 -4 -11 -10 -11 -11 0 -40 -53 -39 -72 0 -7 7 2 15 21 9
19 23 41 33 50 10 9 29 36 42 61 13 25 30 49 37 53 6 4 12 14 12 22 0 7 6 16
13 18 6 3 7 6 1 6 -5 1 -20 -12 -32 -29z"/>
<path d="M5985 4272 c-6 -4 -24 -29 -40 -57 -15 -27 -31 -52 -35 -55 -4 -3
-15 -18 -24 -35 -9 -16 -23 -41 -32 -55 -12 -19 -10 -18 10 5 22 25 139 205
133 205 -1 0 -7 -4 -12 -8z"/>
<path d="M6570 4192 l5 -87 3 79 c2 44 -1 83 -5 87 -4 4 -6 -31 -3 -79z"/>
<path d="M6681 4233 c1 -53 6 -49 11 10 2 20 0 37 -4 37 -4 0 -8 -21 -7 -47z"/>
<path d="M6808 4240 l4 -39 -59 -4 -58 -3 63 -2 62 -2 0 39 c0 22 -3 42 -8 45
-4 2 -6 -13 -4 -34z"/>
<path d="M6937 4273 c-9 -8 -9 -435 -1 -497 l7 -46 61 2 61 2 -57 3 -56 4 -7
132 c-4 73 -5 194 -3 270 1 75 3 137 2 137 0 0 -4 -3 -7 -7z"/>
<path d="M7047 4184 c2 -129 13 -134 13 -6 0 56 -3 102 -7 102 -5 0 -7 -43 -6
-96z"/>
<path d="M7670 4005 l1 -275 63 0 c60 0 64 1 68 25 3 14 1 25 -3 25 -5 0 -9
-4 -9 -10 0 -5 -24 -10 -54 -10 l-54 0 1 260 c1 143 -1 260 -6 260 -4 0 -7
-124 -7 -275z m98 -262 c-15 -2 -42 -2 -60 0 -18 2 -6 4 27 4 33 0 48 -2 33
-4z"/>
<path d="M8017 4262 c-5 -13 -7 -60 -5 -105 l3 -82 -100 -6 -100 -5 95 -4 95
-3 -94 -6 c-61 -4 -96 -11 -99 -19 -2 -6 -11 -12 -20 -13 -11 0 -13 -2 -4 -6
7 -3 24 3 38 12 20 13 44 16 104 13 43 -2 77 -1 74 1 -2 2 3 12 11 21 13 14
15 39 13 121 -2 71 -6 97 -11 81z"/>
<path d="M8140 4032 l5 -247 3 239 c1 132 -1 243 -5 247 -5 5 -6 -103 -3 -239z"/>
<path d="M8508 4273 c7 -3 16 -2 19 1 4 3 -2 6 -13 5 -11 0 -14 -3 -6 -6z"/>
<path d="M8668 4273 c6 -2 18 -2 25 0 6 3 1 5 -13 5 -14 0 -19 -2 -12 -5z"/>
<path d="M8739 4260 c13 -11 30 -20 39 -20 19 0 15 3 -28 24 l-35 17 24 -21z"/>
<path d="M9022 4013 c2 -270 6 -239 10 90 2 97 0 177 -4 177 -5 0 -7 -120 -6
-267z"/>
<path d="M9260 4276 c0 -2 7 -7 16 -10 8 -3 12 -2 9 4 -6 10 -25 14 -25 6z"/>
<path d="M10117 4236 c8 -25 21 -47 28 -49 8 -4 6 7 -6 33 -11 22 -19 44 -19
50 0 5 -4 10 -9 10 -4 0 -2 -20 6 -44z"/>
<path d="M10352 4220 c-16 -33 -26 -60 -22 -60 10 0 50 77 50 96 0 9 5 12 12
8 7 -4 8 -3 4 4 -11 19 -14 16 -44 -48z"/>
<path d="M10909 4278 c-6 -15 -3 -90 3 -94 4 -3 8 18 8 45 0 28 -2 51 -5 51
-3 0 -5 -1 -6 -2z"/>
<path d="M11093 4273 c9 -2 23 -2 30 0 6 3 -1 5 -18 5 -16 0 -22 -2 -12 -5z"/>
<path d="M11208 4273 c7 -3 16 -2 19 1 4 3 -2 6 -13 5 -11 0 -14 -3 -6 -6z"/>
<path d="M11326 4273 l50 -4 0 -37 c0 -20 -4 -41 -10 -45 -7 -5 -5 -7 4 -4 10
2 15 17 15 48 l0 44 -55 1 -55 1 51 -4z"/>
<path d="M7298 4225 c-15 -25 -23 -45 -17 -45 5 0 12 8 16 18 3 9 15 29 25 45
11 15 16 27 11 27 -4 0 -20 -20 -35 -45z"/>
<path d="M9300 4254 c0 -8 4 -14 9 -14 5 0 16 -3 25 -6 26 -10 18 10 -9 23
-20 9 -25 8 -25 -3z"/>
<path d="M10426 4257 c3 -10 9 -15 12 -12 3 3 0 11 -7 18 -10 9 -11 8 -5 -6z"/>
<path d="M10662 4225 c-12 -19 -20 -35 -17 -35 7 0 47 61 42 66 -2 3 -14 -11
-25 -31z"/>
<path d="M5880 4240 c0 -5 5 -10 10 -10 6 0 10 5 10 10 0 6 -4 10 -10 10 -5 0
-10 -4 -10 -10z"/>
<path d="M10011 4226 c7 -15 15 -23 17 -16 3 7 -3 19 -13 28 -15 16 -16 15 -4
-12z"/>
<path d="M10400 4243 c0 -15 19 -37 26 -31 3 4 -1 14 -10 23 -9 9 -16 13 -16
8z"/>
<path d="M10707 4238 c4 -7 8 -21 8 -30 0 -10 4 -19 10 -20 16 -5 43 -67 38
-88 -4 -13 1 -22 13 -27 26 -9 35 -24 28 -48 -4 -16 -3 -17 5 -5 15 21 14 25
-14 58 -13 16 -22 31 -20 34 8 8 -55 138 -67 138 -5 0 -6 -6 -1 -12z"/>
<path d="M8802 4228 c2 -6 15 -18 29 -27 l24 -15 -24 27 c-26 29 -35 34 -29
15z"/>
<path d="M9743 4217 c-8 -17 -8 -24 0 -24 7 0 13 11 13 24 2 29 0 29 -13 0z"/>
<path d="M9800 4226 c0 -13 25 -46 35 -46 2 0 -3 14 -11 30 -17 33 -24 38 -24
16z"/>
<path d="M5915 4220 c3 -5 8 -10 11 -10 2 0 4 5 4 10 0 6 -5 10 -11 10 -5 0
-7 -4 -4 -10z"/>
<path d="M9375 4220 c3 -5 8 -10 11 -10 2 0 4 5 4 10 0 6 -5 10 -11 10 -5 0
-7 -4 -4 -10z"/>
<path d="M10078 4212 c-8 -12 -18 -19 -21 -15 -4 4 -2 -8 4 -25 13 -37 24 -43
15 -8 -6 26 18 58 27 34 2 -7 7 -10 11 -7 3 3 0 14 -8 24 -12 17 -13 17 -28
-3z"/>
<path d="M8758 4213 c7 -3 16 -2 19 1 4 3 -2 6 -13 5 -11 0 -14 -3 -6 -6z"/>
<path d="M9300 4209 c0 -5 5 -7 10 -4 6 3 10 8 10 11 0 2 -4 4 -10 4 -5 0 -10
-5 -10 -11z"/>
<path d="M10687 4213 c-4 -3 -7 -11 -7 -17 0 -6 5 -5 12 2 6 6 9 14 7 17 -3 3
-9 2 -12 -2z"/>
<path d="M5890 4200 c0 -5 5 -10 11 -10 5 0 7 5 4 10 -3 6 -8 10 -11 10 -2 0
-4 -4 -4 -10z"/>
<path d="M5400 4190 l-45 -7 53 -1 c33 -1 51 2 47 8 -3 6 -7 9 -8 8 -1 0 -22
-4 -47 -8z"/>
<path d="M6157 4193 c-10 -9 -9 -83 1 -83 4 0 7 20 7 45 0 25 0 45 -1 45 0 0
-4 -3 -7 -7z"/>
<path d="M7160 4188 c0 -6 -11 -26 -25 -44 -36 -46 -31 -54 5 -9 17 21 30 43
30 49 0 6 4 5 9 -2 7 -11 9 -11 14 0 3 9 -2 14 -14 15 -10 1 -19 -3 -19 -9z"/>
<path d="M8773 4192 c-10 -6 -10 -12 3 -28 15 -18 15 -18 8 5 -4 15 -2 21 4
17 6 -3 13 -2 17 4 7 12 -15 13 -32 2z"/>
<path d="M9320 4193 c0 -1 8 -7 18 -12 13 -7 19 -6 19 2 0 7 -9 13 -19 13 -10
0 -18 -1 -18 -3z"/>
<path d="M10365 4190 c-3 -6 1 -7 9 -4 18 7 21 14 7 14 -6 0 -13 -4 -16 -10z"/>
<path d="M10394 4176 c-3 -14 -4 -31 -1 -38 3 -7 6 -4 6 8 1 11 6 25 12 31 7
7 8 13 0 17 -6 4 -13 -4 -17 -18z"/>
<path d="M4750 4181 c0 -5 7 -11 15 -15 8 -3 15 -1 15 3 0 5 -7 11 -15 15 -8
3 -15 1 -15 -3z"/>
<path d="M4905 4180 c4 -6 11 -8 16 -5 14 9 11 15 -7 15 -8 0 -12 -5 -9 -10z"/>
<path d="M8591 4173 c0 -13 3 -23 9 -23 5 0 11 -28 13 -62 l3 -63 2 68 c1 37
-2 67 -7 67 -5 0 -12 8 -14 18 -4 13 -5 11 -6 -5z"/>
<path d="M8708 4183 c7 -3 16 -2 19 1 4 3 -2 6 -13 5 -11 0 -14 -3 -6 -6z"/>
<path d="M9180 4179 c0 -5 14 -9 32 -9 58 0 121 -49 141 -110 3 -8 6 -4 6 10
0 29 -13 48 -56 78 -33 23 -123 46 -123 31z"/>
<path d="M10035 4170 c13 -43 24 -70 30 -70 9 0 -7 54 -22 75 -14 19 -15 19
-8 -5z"/>
<path d="M11077 4179 c6 -8 13 -27 16 -44 4 -23 4 -20 3 9 -1 25 -6 41 -16 44
-12 4 -13 2 -3 -9z"/>
<path d="M5837 4173 c-4 -3 -7 -13 -7 -20 0 -12 3 -12 15 1 8 8 15 17 15 20 0
8 -15 7 -23 -1z"/>
<path d="M8740 4179 c0 -10 31 -68 40 -74 9 -6 23 25 15 33 -3 3 -5 0 -5 -6 0
-7 -4 -12 -10 -12 -5 0 -10 6 -10 13 0 13 -29 58 -30 46z"/>
<path d="M9711 4156 c-13 -24 -9 -46 9 -46 14 0 22 38 13 55 -8 13 -11 12 -22
-9z m15 -22 c-4 -9 -9 -15 -11 -12 -3 3 -3 13 1 22 4 9 9 15 11 12 3 -3 3 -13
-1 -22z"/>
<path d="M6240 4162 c0 -10 26 -34 50 -47 8 -4 2 6 -14 23 -32 34 -36 37 -36
24z"/>
<path d="M7220 4155 c-7 -9 -8 -15 -2 -15 5 0 12 7 16 15 3 8 4 15 2 15 -2 0
-9 -7 -16 -15z"/>
<path d="M7246 4140 c-9 -17 -21 -28 -26 -25 -5 3 -12 0 -16 -6 -4 -8 -3 -9 4
-5 7 4 12 3 12 -3 0 -5 -4 -13 -10 -16 -5 -3 -10 -14 -10 -23 0 -9 16 8 35 38
31 48 41 70 32 70 -1 0 -11 -14 -21 -30z"/>
<path d="M8805 4161 c-3 -5 -1 -12 5 -16 5 -3 10 1 10 9 0 18 -6 21 -15 7z"/>
<path d="M9327 4159 c7 -7 15 -10 18 -7 3 3 -2 9 -12 12 -14 6 -15 5 -6 -5z"/>
<path d="M9440 4158 c0 -9 5 -20 10 -23 13 -8 13 5 0 25 -8 13 -10 13 -10 -2z"/>
<path d="M10367 4163 c-4 -3 -7 -11 -7 -17 0 -6 5 -5 12 2 6 6 9 14 7 17 -3 3
-9 2 -12 -2z"/>
<path d="M10599 4095 c-20 -41 -32 -72 -27 -69 11 7 71 134 66 139 -2 2 -19
-30 -39 -70z"/>
<path d="M5273 4125 c0 -22 2 -30 4 -17 2 12 2 30 0 40 -3 9 -5 -1 -4 -23z"/>
<path d="M5685 4150 c3 -5 10 -10 16 -10 5 0 9 5 9 10 0 6 -7 10 -16 10 -8 0
-12 -4 -9 -10z"/>
<path d="M9120 4150 c0 -5 5 -10 10 -10 6 0 10 5 10 10 0 6 -4 10 -10 10 -5 0
-10 -4 -10 -10z"/>
<path d="M10166 4130 c7 -35 53 -134 54 -115 0 6 -14 42 -30 80 -21 48 -29 59
-24 35z"/>
<path d="M5861 4134 c0 -11 3 -14 6 -6 3 7 2 16 -1 19 -3 4 -6 -2 -5 -13z"/>
<path d="M7165 4141 c-3 -5 -1 -12 5 -16 5 -3 10 1 10 9 0 18 -6 21 -15 7z"/>
<path d="M6686 4124 c-10 -26 -6 -328 4 -344 8 -12 10 -12 10 -1 0 11 3 11 18
0 15 -13 16 -12 3 3 -7 10 -17 15 -22 12 -10 -6 -13 295 -3 320 5 12 20 16 60
16 l55 0 -1 -181 c-1 -99 1 -183 4 -187 3 -3 6 81 6 186 l0 192 -64 0 c-49 0
-65 -4 -70 -16z"/>
<path d="M8570 4127 c0 -10 8 -17 18 -17 9 0 13 4 7 8 -5 4 -13 11 -17 16 -5
5 -8 2 -8 -7z"/>
<path d="M8855 4100 c0 -21 3 -36 7 -34 5 3 8 18 8 34 0 16 -3 31 -8 34 -4 2
-7 -13 -7 -34z"/>
<path d="M9853 4128 c4 -12 1 -18 -8 -18 -8 0 -15 -4 -15 -9 0 -5 8 -7 18 -4
14 3 22 -4 32 -26 6 -17 19 -36 27 -43 8 -7 1 15 -17 47 -33 62 -48 83 -37 53z"/>
<path d="M10306 4125 c-3 -8 -2 -22 1 -32 4 -10 2 -14 -4 -10 -7 5 -9 -1 -5
-15 l5 -22 8 22 c5 12 6 29 3 37 -4 10 0 15 11 15 9 0 13 5 10 10 -9 15 -22
12 -29 -5z"/>
<path d="M5690 4097 c0 -19 -2 -41 -3 -49 -2 -7 -2 -10 0 -6 3 4 15 -4 29 -19
13 -14 24 -21 24 -16 0 5 -9 18 -21 29 -14 12 -19 28 -17 51 1 17 -1 35 -5 39
-4 4 -7 -9 -7 -29z"/>
<path d="M9137 4012 c0 -64 -3 -125 -9 -135 -8 -15 -7 -18 4 -15 10 3 14 34
16 122 1 64 -1 123 -5 131 -4 7 -7 -39 -6 -103z"/>
<path d="M10716 4115 c-3 -8 -1 -15 4 -15 6 0 10 7 10 15 0 8 -2 15 -4 15 -2
0 -6 -7 -10 -15z"/>
<path d="M6133 4055 c0 -38 2 -53 4 -32 2 20 2 52 0 70 -2 17 -4 1 -4 -38z"/>
<path d="M6748 4113 c6 -2 18 -2 25 0 6 3 1 5 -13 5 -14 0 -19 -2 -12 -5z"/>
<path d="M9465 4084 c4 -31 1 -43 -10 -48 -8 -3 -14 -16 -14 -28 l2 -23 4 23
c7 35 23 25 24 -15 l1 -38 11 34 c8 27 8 36 -1 39 -8 2 -9 8 -4 15 6 8 4 25
-4 47 l-14 35 5 -41z"/>
<path d="M10360 4110 c0 -5 9 -10 19 -10 19 0 18 -4 -10 -60 -21 -42 -33 -58
-44 -54 -8 4 -15 1 -15 -5 0 -6 5 -11 10 -11 6 0 10 -8 11 -17 0 -14 2 -15 6
-3 3 8 21 46 40 84 26 53 31 71 21 78 -18 11 -38 10 -38 -2z"/>
<path d="M11200 3951 l0 -170 -42 -3 c-23 -2 -43 -9 -46 -15 -2 -7 1 -13 8
-13 6 0 8 5 5 10 -4 6 11 10 37 10 31 0 39 -3 28 -10 -13 -9 -13 -10 0 -12 8
-1 -12 -4 -45 -8 l-60 -7 63 -1 62 -2 0 195 c0 107 -2 195 -5 195 -3 0 -5 -76
-5 -169z"/>
<path d="M4763 4030 c0 -47 2 -66 4 -42 2 23 2 61 0 85 -2 23 -4 4 -4 -43z"/>
<path d="M4874 3950 c0 -91 2 -128 3 -82 2 45 2 119 0 165 -1 45 -3 8 -3 -83z"/>
<path d="M6461 4063 c1 -53 6 -49 11 10 2 20 0 37 -4 37 -4 0 -8 -21 -7 -47z"/>
<path d="M7761 4094 c0 -11 3 -14 6 -6 3 7 2 16 -1 19 -3 4 -6 -2 -5 -13z"/>
<path d="M8041 4094 c0 -11 3 -14 6 -6 3 7 2 16 -1 19 -3 4 -6 -2 -5 -13z"/>
<path d="M8830 4094 c0 -9 -5 -12 -12 -8 -7 4 -8 3 -4 -4 11 -18 23 -14 29 8
3 11 1 20 -4 20 -5 0 -9 -7 -9 -16z"/>
<path d="M9442 4090 c0 -14 2 -19 5 -12 2 6 2 18 0 25 -3 6 -5 1 -5 -13z"/>
<path d="M6152 4080 c0 -14 2 -19 5 -12 2 6 2 18 0 25 -3 6 -5 1 -5 -13z"/>
<path d="M8761 4086 c0 -11 -8 -28 -18 -38 -9 -10 -14 -21 -10 -24 10 -10 39
44 34 63 -4 16 -5 16 -6 -1z"/>
<path d="M6320 4080 c0 -5 8 -14 18 -19 14 -9 15 -12 3 -20 -10 -7 -7 -9 11
-8 24 2 24 3 9 24 -18 24 -41 38 -41 23z"/>
<path d="M7083 4065 c-6 -14 -7 -23 -2 -19 13 8 31 44 22 44 -4 0 -13 -11 -20
-25z"/>
<path d="M7801 4074 c0 -11 3 -14 6 -6 3 7 2 16 -1 19 -3 4 -6 -2 -5 -13z"/>
<path d="M8057 4069 c-3 -11 -10 -18 -16 -14 -6 3 -11 2 -11 -3 0 -6 7 -12 15
-16 10 -3 17 3 21 20 4 14 4 27 1 30 -2 3 -7 -5 -10 -17z"/>
<path d="M9781 4083 c1 -15 58 -128 58 -117 1 14 -47 124 -54 124 -3 0 -5 -3
-4 -7z"/>
<path d="M10672 4078 c-7 -7 -12 -20 -12 -31 0 -11 -4 -15 -12 -11 -7 5 -8 3
-4 -5 9 -13 -11 -71 -28 -84 -7 -5 -6 -7 3 -5 14 4 76 137 68 144 -2 2 -9 -2
-15 -8z"/>
<path d="M10160 4070 c0 -17 17 -47 23 -40 2 3 -2 16 -10 30 -7 14 -13 18 -13
10z"/>
<path d="M10704 4068 c3 -15 26 -23 26 -8 0 6 -4 9 -9 6 -5 -4 -12 -1 -14 4
-3 6 -4 5 -3 -2z"/>
<path d="M5360 4059 l-35 -6 43 -2 c37 -1 42 -4 42 -25 0 -13 -6 -27 -12 -29
-7 -3 -4 -6 7 -6 20 -1 22 9 16 60 -2 12 -25 15 -61 8z"/>
<path d="M10263 4025 c-11 -25 -17 -45 -13 -45 7 0 42 81 37 87 -2 1 -13 -18
-24 -42z"/>
<path d="M10343 4049 c-3 -12 -11 -18 -19 -15 -8 3 -14 1 -14 -5 0 -19 33 -4
41 19 5 12 6 22 3 22 -3 0 -8 -9 -11 -21z"/>
<path d="M7108 4048 c-3 -7 1 -24 9 -38 9 -18 13 -20 13 -8 0 9 -4 19 -10 23
-5 3 -7 12 -3 20 3 8 3 15 0 15 -3 0 -7 -6 -9 -12z"/>
<path d="M8813 4038 c3 -10 2 -20 -3 -23 -6 -4 -10 -11 -10 -17 0 -6 11 -1 25
12 14 13 25 28 24 34 0 6 -3 5 -6 -2 -4 -10 -8 -10 -21 0 -13 11 -15 10 -9 -4z"/>
<path d="M10605 4040 c-3 -5 -1 -10 4 -10 6 0 11 5 11 10 0 6 -2 10 -4 10 -3
0 -8 -4 -11 -10z"/>
<path d="M5362 4014 c-1 -13 3 -24 9 -24 5 0 7 5 4 10 -3 6 -1 10 4 10 15 0
14 17 -2 23 -8 3 -14 -4 -15 -19z"/>
<path d="M6150 4019 c0 -11 4 -18 10 -14 5 3 7 12 3 20 -7 21 -13 19 -13 -6z"/>
<path d="M8766 4024 c-5 -12 -14 -15 -36 -10 -25 4 -28 3 -18 -8 15 -16 75 -1
75 20 0 19 -13 18 -21 -2z"/>
<path d="M9357 3984 c-6 -44 -15 -69 -32 -88 -25 -27 -22 -34 6 -13 22 17 42
83 37 127 -3 28 -5 24 -11 -26z"/>
<path d="M9650 4029 c0 -5 5 -7 10 -4 6 3 10 8 10 11 0 2 -4 4 -10 4 -5 0 -10
-5 -10 -11z"/>
<path d="M10756 4010 c19 -36 20 -37 26 -6 4 17 1 23 -9 19 -7 -3 -13 0 -13 6
0 6 -4 11 -9 11 -5 0 -3 -13 5 -30z"/>
<path d="M6267 4000 c30 -34 38 -37 46 -16 4 11 1 13 -10 9 -12 -5 -15 -2 -10
10 4 11 2 14 -7 11 -8 -3 -17 -1 -21 5 -3 6 -10 11 -16 11 -5 0 3 -13 18 -30z"/>
<path d="M7170 4022 c0 -6 18 -35 40 -64 22 -29 40 -62 41 -73 1 -17 2 -17 6
-2 5 17 -14 53 -61 116 -14 19 -26 30 -26 23z"/>
<path d="M8021 4015 c-1 -27 17 -45 44 -44 17 1 16 2 -5 8 -14 4 -27 17 -31
31 -6 21 -7 22 -8 5z"/>
<path d="M9677 4023 c-4 -3 -7 -11 -7 -17 0 -6 5 -5 12 2 6 6 9 14 7 17 -3 3
-9 2 -12 -2z"/>
<path d="M9718 3983 c-11 -27 -25 -51 -30 -54 -7 -4 -6 -9 0 -13 13 -8 15 -4
41 62 26 65 17 69 -11 5z"/>
<path d="M10101 4024 c-1 -6 13 -40 29 -75 17 -35 28 -53 24 -39 -8 34 -52
128 -53 114z"/>
<path d="M10731 3995 c29 -51 33 -56 24 -25 -4 14 -16 34 -27 45 -17 18 -17
15 3 -20z"/>
<path d="M8050 4005 c7 -9 15 -13 17 -11 7 7 -7 26 -19 26 -6 0 -6 -6 2 -15z"/>
<path d="M8610 4010 c0 -5 5 -10 11 -10 5 0 7 5 4 10 -3 6 -8 10 -11 10 -2 0
-4 -4 -4 -10z"/>
<path d="M10287 4013 c-4 -3 -7 -11 -7 -17 0 -6 5 -5 12 2 6 6 9 14 7 17 -3 3
-9 2 -12 -2z"/>
<path d="M10812 4000 c-16 -26 -15 -35 2 -21 11 10 17 7 30 -11 22 -31 20 -9
-2 24 -17 26 -18 26 -30 8z"/>
<path d="M5681 3994 c0 -11 3 -14 6 -6 3 7 2 16 -1 19 -3 4 -6 -2 -5 -13z"/>
<path d="M6414 3991 c11 -11 23 -21 28 -21 14 0 -1 19 -25 31 -22 12 -22 12
-3 -10z"/>
<path d="M7100 3994 c0 -11 -6 -14 -22 -9 -21 6 -22 5 -5 -8 9 -8 17 -19 17
-26 0 -14 17 -14 26 1 5 7 3 8 -6 3 -9 -6 -11 0 -5 24 4 17 4 31 1 31 -3 0 -6
-7 -6 -16z"/>
<path d="M7820 4000 c-13 -8 -12 -10 3 -10 9 0 17 5 17 10 0 12 -1 12 -20 0z"/>
<path d="M8658 4003 c6 -2 18 -2 25 0 6 3 1 5 -13 5 -14 0 -19 -2 -12 -5z"/>
<path d="M9637 4003 c-4 -3 -7 -11 -7 -17 0 -6 5 -5 12 2 6 6 9 14 7 17 -3 3
-9 2 -12 -2z"/>
<path d="M10180 4004 c0 -5 7 -19 15 -30 8 -10 15 -14 15 -8 0 5 -7 19 -15 30
-8 10 -15 14 -15 8z"/>
<path d="M10518 3936 c-20 -42 -32 -74 -28 -71 13 8 71 126 68 137 -2 5 -20
-25 -40 -66z"/>
<path d="M5298 3993 c12 -2 30 -2 40 0 9 3 -1 5 -23 4 -22 0 -30 -2 -17 -4z"/>
<path d="M5840 3993 c0 -13 62 -103 71 -103 5 0 -7 25 -27 55 -36 53 -44 62
-44 48z"/>
<path d="M6200 3990 c0 -5 5 -10 10 -10 6 0 10 5 10 10 0 6 -4 10 -10 10 -5 0
-10 -4 -10 -10z"/>
<path d="M7151 3988 c-1 -9 -6 -18 -13 -20 -8 -3 -8 -9 -1 -22 7 -13 13 -15
17 -7 4 6 2 11 -5 11 -9 0 -8 4 1 15 6 8 10 20 7 27 -4 9 -6 7 -6 -4z"/>
<path d="M8580 3979 c7 -11 21 -19 37 -19 30 0 29 1 -14 23 -32 15 -32 15 -23
-4z"/>
<path d="M9691 3984 c0 -11 3 -14 6 -6 3 7 2 16 -1 19 -3 4 -6 -2 -5 -13z"/>
<path d="M9921 3995 c0 -14 57 -133 58 -120 0 6 -13 37 -29 70 -16 33 -29 56
-29 50z"/>
<path d="M5697 3968 c-3 -12 -2 -29 4 -37 8 -14 9 -13 8 4 -4 54 12 61 31 15
17 -40 23 -33 8 8 -14 37 -43 43 -51 10z"/>
<path d="M6157 3975 c2 -8 11 -11 19 -8 16 6 11 16 -11 19 -8 1 -11 -4 -8 -11z"/>
<path d="M8770 3979 c0 -5 5 -7 10 -4 6 3 10 8 10 11 0 2 -4 4 -10 4 -5 0 -10
-5 -10 -11z"/>
<path d="M9649 3968 c-11 -20 -11 -22 3 -10 13 10 17 10 22 -4 4 -9 9 -14 12
-11 3 3 -1 15 -9 27 l-15 22 -13 -24z"/>
<path d="M5280 3973 c0 -9 129 -7 138 1 3 3 -27 6 -66 6 -40 0 -72 -3 -72 -7z"/>
<path d="M7793 3968 c-10 -17 -20 -188 -10 -181 4 2 8 41 9 86 l2 82 6 -85 7
-85 0 89 0 89 101 -1 c56 0 107 -4 113 -8 7 -4 10 -1 7 7 -6 20 -222 26 -235
7z"/>
<path d="M8700 3971 l-25 -7 27 -6 c15 -3 25 -2 23 3 -3 4 5 10 17 12 19 3 19
4 3 5 -11 0 -31 -3 -45 -7z"/>
<path d="M7041 3954 c0 -11 3 -14 6 -6 3 7 2 16 -1 19 -3 4 -6 -2 -5 -13z"/>
<path d="M10270 3960 c0 -6 7 -10 15 -10 8 0 15 2 15 4 0 2 -7 6 -15 10 -8 3
-15 1 -15 -4z"/>
<path d="M6200 3949 c0 -5 5 -7 10 -4 6 3 10 8 10 11 0 2 -4 4 -10 4 -5 0 -10
-5 -10 -11z"/>
<path d="M6335 3937 c17 -14 54 -48 84 -76 30 -28 57 -49 60 -46 6 7 -48 55
-61 55 -5 0 -13 11 -19 24 -6 13 -30 33 -53 46 l-41 22 30 -25z"/>
<path d="M7175 3950 c-3 -6 1 -7 9 -4 18 7 21 14 7 14 -6 0 -13 -4 -16 -10z"/>
<path d="M10236 3945 c4 -8 8 -15 10 -15 2 0 4 7 4 15 0 8 -4 15 -10 15 -5 0
-7 -7 -4 -15z"/>
<path d="M5800 3935 c0 -8 4 -15 10 -15 5 0 7 7 4 15 -4 8 -8 15 -10 15 -2 0
-4 -7 -4 -15z"/>
<path d="M5830 3935 c0 -8 2 -15 4 -15 2 0 6 7 10 15 3 8 1 15 -4 15 -6 0 -10
-7 -10 -15z"/>
<path d="M6103 3875 c0 -44 2 -61 4 -37 2 23 2 59 0 80 -2 20 -4 1 -4 -43z"/>
<path d="M8676 3915 c14 -19 31 -35 36 -35 5 0 6 -4 3 -10 -3 -5 -1 -10 5 -10
7 0 9 7 6 16 -3 9 -6 18 -6 20 0 3 -4 2 -10 -1 -5 -3 -10 -2 -10 3 0 11 -35
52 -44 52 -4 0 5 -16 20 -35z"/>
<path d="M9470 3939 c0 -8 -6 -25 -13 -39 -21 -39 -28 -62 -18 -55 14 8 45 94
37 102 -3 3 -6 0 -6 -8z"/>
<path d="M5273 3900 c0 -25 2 -35 4 -22 2 12 2 32 0 45 -2 12 -4 2 -4 -23z"/>
<path d="M6133 3865 c0 -44 2 -61 4 -37 2 23 2 59 0 80 -2 20 -4 1 -4 -43z"/>
<path d="M7190 3924 c0 -8 4 -13 9 -9 6 3 15 -4 21 -16 7 -11 14 -18 17 -16 6
7 -29 56 -39 57 -5 0 -8 -7 -8 -16z"/>
<path d="M8013 3840 l2 -105 63 -3 c34 -2 62 1 63 5 0 4 2 16 4 26 2 9 -1 15
-6 11 -5 -3 -9 -12 -9 -20 0 -21 -101 -16 -108 6 -4 12 -2 13 9 3 20 -20 31
-15 17 6 -7 11 -15 18 -18 16 -4 -2 -5 8 -3 23 2 15 0 52 -5 82 -9 50 -10 46
-9 -50z"/>
<path d="M9848 3933 c6 -2 12 -14 12 -25 0 -17 -5 -20 -30 -16 -16 3 -30 1
-30 -4 0 -14 57 -9 70 7 10 12 10 18 0 30 -7 8 -18 15 -24 14 -7 0 -6 -2 2 -6z"/>
<path d="M5770 3917 c0 -8 6 -20 14 -26 12 -10 13 -8 9 9 -7 25 -23 37 -23 17z"/>
<path d="M5850 3922 c0 -5 7 -15 15 -22 8 -7 15 -8 15 -2 0 5 -7 15 -15 22 -8
7 -15 8 -15 2z"/>
<path d="M7110 3924 c0 -3 11 -20 24 -37 13 -18 33 -50 45 -72 12 -22 21 -34
21 -26 0 7 -9 29 -21 47 -11 19 -17 34 -13 34 4 0 -5 11 -19 24 -14 13 -23 27
-20 30 4 3 1 6 -5 6 -7 0 -12 -3 -12 -6z"/>
<path d="M10260 3919 c0 -5 5 -7 10 -4 6 3 10 8 10 11 0 2 -4 4 -10 4 -5 0
-10 -5 -10 -11z"/>
<path d="M10600 3919 c0 -5 5 -7 10 -4 6 3 10 8 10 11 0 2 -4 4 -10 4 -5 0
-10 -5 -10 -11z"/>
<path d="M10764 3912 c1 -14 -9 -17 -59 -20 -83 -4 -93 -10 -18 -11 34 -1 68
2 77 5 17 7 21 29 7 38 -5 3 -8 -2 -7 -12z"/>
<path d="M7047 3913 c-3 -5 -1 -44 3 -88 l8 -80 -1 87 c-2 90 -2 93 -10 81z"/>
<path d="M7160 3910 c0 -5 5 -10 11 -10 5 0 7 5 4 10 -3 6 -8 10 -11 10 -2 0
-4 -4 -4 -10z"/>
<path d="M8765 3911 c-3 -5 -1 -12 5 -16 5 -3 10 1 10 9 0 18 -6 21 -15 7z"/>
<path d="M8800 3911 c0 -6 4 -13 10 -16 6 -3 7 1 4 9 -7 18 -14 21 -14 7z"/>
<path d="M9565 3855 c-16 -36 -33 -65 -37 -65 -4 0 -8 -4 -8 -10 0 -5 15 -9
33 -9 23 1 26 3 10 6 -22 4 -22 5 12 74 20 38 32 69 28 69 -5 0 -21 -30 -38
-65z"/>
<path d="M10580 3905 c7 -8 20 -15 28 -15 13 0 12 3 -4 15 -25 19 -40 19 -24
0z"/>
<path d="M5692 3886 c1 -13 6 -22 10 -20 11 7 10 32 -2 39 -6 3 -9 -4 -8 -19z"/>
<path d="M8560 3905 c0 -2 9 -9 20 -15 16 -9 18 -8 14 5 -5 13 -34 22 -34 10z"/>
<path d="M9930 3903 c0 -6 8 -17 18 -24 16 -13 16 -13 2 6 -8 11 -16 22 -17
24 -2 2 -3 0 -3 -6z"/>
<path d="M10290 3887 c0 -13 -11 -47 -25 -75 -14 -29 -25 -58 -25 -64 0 -7 14
19 31 57 17 39 35 78 40 88 7 12 5 17 -6 17 -9 0 -15 -9 -15 -23z"/>
<path d="M10845 3900 c4 -6 11 -8 16 -5 14 9 11 15 -7 15 -8 0 -12 -5 -9 -10z"/>
<path d="M7191 3882 c-6 -12 -6 -23 0 -33 8 -11 9 -10 7 6 -2 11 2 19 9 18 7
-2 10 4 7 12 -8 19 -11 19 -23 -3z"/>
<path d="M9693 3893 c24 -6 21 -21 -5 -26 -13 -2 18 -4 67 -4 50 0 75 2 57 4
-18 2 -30 9 -27 14 4 5 -4 9 -17 10 -13 0 -39 2 -58 4 -19 1 -27 1 -17 -2z"/>
<path d="M10794 3888 c5 -16 -4 -18 -77 -20 l-82 -2 79 -3 c83 -4 102 2 85 27
-9 13 -10 12 -5 -2z"/>
<path d="M5801 3865 c-1 -5 8 -21 19 -35 11 -14 20 -20 20 -14 0 7 -9 22 -20
35 -10 13 -19 20 -19 14z"/>
<path d="M6573 3830 c0 -25 2 -35 4 -22 2 12 2 32 0 45 -2 12 -4 2 -4 -23z"/>
<path d="M9250 3849 c-35 -18 -33 -24 7 -13 12 3 24 12 27 20 3 8 4 14 3 13
-1 -1 -18 -9 -37 -20z"/>
<path d="M9360 3853 c0 -10 4 -14 8 -8 4 6 11 13 16 18 5 4 2 7 -7 7 -10 0
-17 -8 -17 -17z"/>
<path d="M9582 3830 c-11 -22 -16 -40 -11 -40 5 0 9 2 9 4 0 2 7 20 15 40 20
48 12 46 -13 -4z"/>
<path d="M10185 3859 c-4 -5 -4 -21 -1 -35 8 -32 46 -93 46 -74 0 8 -9 30 -21
49 -11 19 -18 42 -16 53 6 20 2 24 -8 7z"/>
<path d="M10230 3864 c0 -13 18 -39 24 -34 2 3 -2 14 -10 24 -8 11 -14 16 -14
10z"/>
<path d="M10578 3863 c7 -3 16 -2 19 1 4 3 -2 6 -13 5 -11 0 -14 -3 -6 -6z"/>
<path d="M5920 3857 c0 -5 7 -15 15 -23 8 -8 19 -23 24 -32 5 -9 12 -14 15
-11 3 3 -8 21 -24 40 -16 19 -29 30 -30 26z"/>
<path d="M8756 3845 c4 -8 11 -15 16 -15 6 0 5 6 -2 15 -7 8 -14 15 -16 15 -2
0 -1 -7 2 -15z"/>
<path d="M8848 3832 c13 -17 28 -35 34 -39 7 -3 2 8 -10 25 -13 17 -28 35 -34
39 -7 3 -2 -8 10 -25z"/>
<path d="M9640 3850 c0 -5 5 -10 10 -10 6 0 10 5 10 10 0 6 -4 10 -10 10 -5 0
-10 -4 -10 -10z"/>
<path d="M9895 3850 c-19 -8 -19 -9 3 -9 12 -1 22 4 22 9 0 6 -1 10 -2 9 -2 0
-12 -4 -23 -9z"/>
<path d="M10904 3845 c13 -54 32 -95 46 -97 8 0 -7 -4 -35 -8 l-50 -7 53 -1
c52 -2 62 4 41 25 -6 6 -22 33 -35 59 -13 27 -22 40 -20 29z"/>
<path d="M5692 3825 c0 -16 2 -22 5 -12 2 9 2 23 0 30 -3 6 -5 -1 -5 -18z"/>
<path d="M7280 3840 c0 -5 5 -10 11 -10 6 0 9 -8 7 -18 -4 -12 1 -18 13 -18
16 0 16 2 -3 28 -21 30 -28 34 -28 18z"/>
<path d="M8790 3830 c0 -19 3 -21 12 -12 9 9 9 15 0 24 -9 9 -12 7 -12 -12z"/>
<path d="M9126 3842 c6 -4 14 -14 17 -22 4 -10 6 -8 6 8 1 15 -5 22 -16 22
-11 0 -14 -3 -7 -8z"/>
<path d="M9723 3843 c26 -2 67 -2 90 0 23 2 2 3 -48 3 -49 0 -68 -1 -42 -3z"/>
<path d="M9950 3841 c0 -10 19 -25 25 -20 1 2 -3 10 -11 17 -8 7 -14 8 -14 3z"/>
<path d="M10466 3834 c-4 -9 -4 -19 -1 -22 2 -3 7 3 11 12 4 9 4 19 1 22 -2 3
-7 -3 -11 -12z"/>
<path d="M10678 3843 c23 -2 61 -2 85 0 23 2 4 4 -43 4 -47 0 -66 -2 -42 -4z"/>
<path d="M5378 3833 c12 -2 32 -2 45 0 12 2 2 4 -23 4 -25 0 -35 -2 -22 -4z"/>
<path d="M5452 3793 l-2 -53 -145 0 -145 0 0 25 c0 14 -5 25 -11 25 -6 0 -8
-7 -5 -16 3 -9 6 -22 6 -30 0 -19 306 -21 312 -1 2 6 1 32 -3 57 l-6 45 -1
-52z"/>
<path d="M8736 3830 c4 -8 20 -34 36 -57 28 -41 31 -43 76 -41 l47 1 -50 7
-50 6 45 5 45 6 -47 1 c-27 1 -48 6 -48 11 0 4 12 7 28 5 15 -2 20 -1 12 2 -8
3 -22 8 -30 11 -8 4 -18 7 -21 7 -4 1 -17 12 -29 26 -12 14 -18 18 -14 10z"/>
<path d="M10850 3829 c0 -5 5 -7 10 -4 6 3 10 8 10 11 0 2 -4 4 -10 4 -5 0
-10 -5 -10 -11z"/>
<path d="M9162 3810 c0 -14 2 -19 5 -12 2 6 2 18 0 25 -3 6 -5 1 -5 -13z"/>
<path d="M9400 3819 c0 -5 5 -7 10 -4 6 3 10 8 10 11 0 2 -4 4 -10 4 -5 0 -10
-5 -10 -11z"/>
<path d="M9646 3808 c-8 -13 -17 -33 -21 -45 -6 -20 -12 -23 -58 -21 l-52 1
45 7 45 7 -46 1 c-34 2 -49 -2 -53 -13 -4 -12 5 -15 55 -15 l60 0 20 46 21 46
123 -4 c68 -2 121 0 118 5 -2 4 -58 7 -123 7 -113 0 -120 -1 -134 -22z"/>
<path d="M10006 3815 c19 -57 20 -55 -37 -54 -40 0 -49 3 -34 9 18 8 18 9 -5
9 -20 1 -22 3 -10 11 13 8 12 10 -4 10 -12 0 -16 -5 -12 -16 3 -9 6 -20 6 -26
0 -5 26 -8 61 -7 44 2 63 -1 70 -12 20 -31 6 9 -17 51 -14 25 -22 36 -18 25z"/>
<path d="M10633 3823 c31 -2 83 -2 115 0 31 2 5 3 -58 3 -63 0 -89 -1 -57 -3z"/>
<path d="M5336 3805 c-3 -8 -1 -15 4 -15 6 0 10 7 10 15 0 8 -2 15 -4 15 -2 0
-6 -7 -10 -15z"/>
<path d="M8830 3805 c7 -9 15 -13 17 -11 7 7 -7 26 -19 26 -6 0 -6 -6 2 -15z"/>
<path d="M9181 3804 c0 -11 3 -14 6 -6 3 7 2 16 -1 19 -3 4 -6 -2 -5 -13z"/>
<path d="M10821 3803 c-1 -30 16 -73 30 -73 8 0 8 4 1 13 -6 6 -15 28 -20 47
-7 24 -10 28 -11 13z"/>
<path d="M10890 3800 c6 -11 13 -20 16 -20 2 0 0 9 -6 20 -6 11 -13 20 -16 20
-2 0 0 -9 6 -20z"/>
<path d="M8585 3789 c-4 -6 -14 -8 -22 -5 -8 3 -11 1 -8 -4 9 -15 32 -12 39 5
6 17 0 20 -9 4z"/>
<path d="M9596 3785 c-3 -8 -1 -15 4 -15 13 0 22 18 11 24 -5 3 -11 -1 -15 -9z"/>
<path d="M10550 3785 c-7 -9 -8 -15 -2 -15 5 0 12 7 16 15 3 8 4 15 2 15 -2 0
-9 -7 -16 -15z"/>
<path d="M10863 3793 c4 -6 1 -14 -5 -16 -7 -3 -4 -6 7 -6 17 -1 17 -3 5 -11
-13 -8 -12 -10 3 -10 22 0 22 23 0 41 -9 8 -14 9 -10 2z"/>
<path d="M4787 3783 c7 -2 11 -10 9 -16 -1 -7 -1 -9 1 -4 3 4 19 7 36 7 40 0
32 6 -18 13 -22 3 -35 3 -28 0z"/>
<path d="M5172 3770 c0 -14 2 -19 5 -12 2 6 2 18 0 25 -3 6 -5 1 -5 -13z"/>
<path d="M5690 3765 c0 -23 -3 -25 -47 -23 l-48 1 45 6 45 7 -47 4 c-25 3 -45
3 -42 1 2 -2 -1 -10 -7 -18 -9 -11 0 -13 49 -13 59 0 60 0 64 30 3 17 1 30 -4
30 -4 0 -8 -11 -8 -25z"/>
<path d="M5866 3763 c12 -21 26 -33 39 -32 14 0 15 2 5 6 -8 3 -26 17 -39 31
l-23 27 18 -32z"/>
<path d="M5890 3775 c7 -9 15 -13 17 -11 7 7 -7 26 -19 26 -6 0 -6 -6 2 -15z"/>
<path d="M6205 3780 c-3 -5 -1 -10 4 -10 6 0 11 5 11 10 0 6 -2 10 -4 10 -3 0
-8 -4 -11 -10z"/>
<path d="M6525 3761 c17 -16 32 -27 34 -25 7 6 -41 54 -53 54 -6 0 3 -13 19
-29z"/>
<path d="M7210 3788 c0 -4 5 -19 12 -33 9 -19 18 -25 42 -24 30 2 30 2 4 6
-16 2 -28 8 -28 12 0 9 -29 48 -30 39z"/>
<path d="M7240 3780 c0 -5 5 -10 10 -10 6 0 10 5 10 10 0 6 -4 10 -10 10 -5 0
-10 -4 -10 -10z"/>
<path d="M7276 3778 c3 -4 16 -8 29 -8 15 0 26 -7 30 -20 3 -11 13 -20 21 -20
13 0 13 2 0 16 -9 8 -16 19 -16 24 0 4 -15 10 -34 12 -19 2 -32 0 -30 -4z"/>
<path d="M8281 3774 c0 -11 3 -14 6 -6 3 7 2 16 -1 19 -3 4 -6 -2 -5 -13z"/>
<path d="M8510 3784 c0 -11 29 -34 42 -34 8 0 6 5 -5 11 -9 6 -15 14 -12 20 4
5 -1 9 -9 9 -9 0 -16 -3 -16 -6z"/>
<path d="M8611 3782 c0 -7 -9 -21 -18 -30 -16 -16 -15 -17 1 -20 24 -5 28 1
23 35 -2 15 -5 22 -6 15z"/>
<path d="M11088 3783 c7 -3 16 -2 19 1 4 3 -2 6 -13 5 -11 0 -14 -3 -6 -6z"/>
<path d="M4760 3756 c0 -25 2 -26 63 -24 l62 2 -58 3 c-46 3 -58 7 -53 18 3 8
1 17 -4 20 -6 4 -10 -5 -10 -19z"/>
<path d="M5218 3773 c7 -3 16 -2 19 1 4 3 -2 6 -13 5 -11 0 -14 -3 -6 -6z"/>
<path d="M5323 3773 c20 -2 54 -2 75 0 20 2 3 4 -38 4 -41 0 -58 -2 -37 -4z"/>
<path d="M5643 3773 c9 -2 23 -2 30 0 6 3 -1 5 -18 5 -16 0 -22 -2 -12 -5z"/>
<path d="M5966 3766 c3 -8 13 -17 22 -19 10 -3 5 -5 -10 -6 -16 0 -28 4 -28 9
0 6 -4 10 -10 10 -5 0 -7 -7 -4 -15 6 -15 74 -22 74 -7 0 8 -36 42 -45 42 -2
0 -2 -6 1 -14z"/>
<path d="M6100 3755 c0 -24 3 -25 58 -25 46 0 59 3 59 15 0 8 -4 15 -9 15 -4
0 -8 -4 -8 -10 0 -5 -21 -10 -46 -10 -41 0 -46 2 -41 20 3 11 1 20 -4 20 -5 0
-9 -11 -9 -25z"/>
<path d="M6572 3755 c0 -16 2 -22 5 -12 2 9 2 23 0 30 -3 6 -5 -1 -5 -18z"/>
<path d="M6988 3773 c12 -2 30 -2 40 0 9 3 -1 5 -23 4 -22 0 -30 -2 -17 -4z"/>
<path d="M7728 3773 c6 -2 18 -2 25 0 6 3 1 5 -13 5 -14 0 -19 -2 -12 -5z"/>
<path d="M8101 3764 c0 -11 3 -14 6 -6 3 7 2 16 -1 19 -3 4 -6 -2 -5 -13z"/>
<path d="M8890 3769 c0 -8 9 -20 20 -27 11 -7 20 -8 20 -4 0 5 -9 17 -20 27
-15 14 -20 15 -20 4z"/>
<path d="M9098 3773 c7 -3 16 -2 19 1 4 3 -2 6 -13 5 -11 0 -14 -3 -6 -6z"/>
<path d="M9260 3770 l-25 -8 24 -1 c13 -1 22 -4 19 -7 -4 -3 -64 -9 -135 -13
l-128 -8 95 -1 c122 -1 172 8 176 31 1 9 2 17 1 16 -1 -1 -13 -5 -27 -9z"/>
<path d="M9314 3765 c-24 -18 -7 -19 26 0 16 9 19 14 9 15 -8 0 -24 -7 -35
-15z"/>
<path d="M6130 3759 c0 -11 47 -12 53 -1 3 4 -8 7 -24 8 -16 1 -29 -3 -29 -7z"/>
<path d="M8070 3760 c0 -5 5 -10 11 -10 5 0 7 5 4 10 -3 6 -8 10 -11 10 -2 0
-4 -4 -4 -10z"/>
<path d="M5268 3753 c34 -2 88 -2 120 0 31 2 3 3 -63 3 -66 0 -92 -1 -57 -3z"/>
<path d="M6690 3745 c0 -12 14 -15 66 -15 58 0 65 2 54 15 -8 9 -28 14 -54 13
l-41 -1 45 -7 45 -7 -53 -1 c-33 -1 -51 2 -47 8 3 6 1 10 -4 10 -6 0 -11 -7
-11 -15z"/>
<path d="M6978 3753 c12 -2 32 -2 45 0 12 2 2 4 -23 4 -25 0 -35 -2 -22 -4z"/>
<path d="M9078 3753 c23 -2 61 -2 85 0 23 2 4 4 -43 4 -47 0 -66 -2 -42 -4z"/>
<path d="M10426 3745 c-3 -8 -1 -15 4 -15 6 0 10 4 10 9 0 5 8 12 18 14 13 4
12 5 -4 6 -12 0 -24 -6 -28 -14z"/>
<path d="M10530 3751 c0 -6 -19 -12 -42 -14 l-43 -4 48 -1 c36 -2 47 2 47 13
0 8 -2 15 -5 15 -3 0 -5 -4 -5 -9z"/>
<path d="M8518 3733 c12 -2 30 -2 40 0 9 3 -1 5 -23 4 -22 0 -30 -2 -17 -4z"/>
<path d="M9943 3733 c15 -2 39 -2 55 0 15 2 2 4 -28 4 -30 0 -43 -2 -27 -4z"/>
<path d="M3998 3 c2201 -2 5803 -2 8005 0 2201 1 400 2 -4003 2 -4403 0 -6204
-1 -4002 -2z"/>
</g>
</svg>
